{
    "asset": {
        "copyright": "2020 (c) Adobe Inc.",
        "generator": "Adobe Dimension - 0f693b0ede4f4f878c948589cb1cd200001139cd",
        "version": "2.0",
        "extensions": {
            "KHR_xmp": {
                "packet": 0
            }
        }
    },
    "accessors": [
        {
            "bufferView": 0,
            "componentType": 5126,
            "count": 28,
            "type": "VEC3",
            "max": [
                0.07654820382595062,
                0.015009400434792042,
                0.015009400434792042
            ],
            "min": [
                -0.07654820382595062,
                -0.015009400434792042,
                -0.015009400434792042
            ]
        },
        {
            "bufferView": 1,
            "componentType": 5126,
            "count": 28,
            "type": "VEC3"
        },
        {
            "bufferView": 2,
            "componentType": 5126,
            "count": 28,
            "type": "VEC2"
        },
        {
            "bufferView": 3,
            "componentType": 5125,
            "count": 60,
            "type": "SCALAR",
            "max": [
                27.0
            ],
            "min": [
                0.0
            ]
        },
        {
            "bufferView": 4,
            "componentType": 5126,
            "count": 28,
            "type": "VEC3",
            "max": [
                0.07654820382595062,
                0.10206399857997894,
                0.004002520348876715
            ],
            "min": [
                -0.07654820382595062,
                -0.10206399857997894,
                -0.004002520348876715
            ]
        },
        {
            "bufferView": 5,
            "componentType": 5126,
            "count": 28,
            "type": "VEC2"
        },
        {
            "bufferView": 6,
            "componentType": 5126,
            "count": 4031,
            "type": "VEC3",
            "max": [
                0.06314150243997574,
                0.0885797068476677,
                0.004320960026234388
            ],
            "min": [
                -0.06314150243997574,
                -0.0885797068476677,
                -0.004320960026234388
            ]
        },
        {
            "bufferView": 7,
            "componentType": 5126,
            "count": 4031,
            "type": "VEC3"
        },
        {
            "bufferView": 8,
            "componentType": 5126,
            "count": 4031,
            "type": "VEC2"
        },
        {
            "bufferView": 9,
            "componentType": 5125,
            "count": 20658,
            "type": "SCALAR",
            "max": [
                4030.0
            ],
            "min": [
                0.0
            ]
        }
    ],
    "bufferViews": [
        {
            "buffer": 0,
            "byteOffset": 0,
            "byteLength": 336,
            "target": 34962
        },
        {
            "buffer": 0,
            "byteOffset": 336,
            "byteLength": 336,
            "target": 34962
        },
        {
            "buffer": 0,
            "byteOffset": 672,
            "byteLength": 224,
            "target": 34962
        },
        {
            "buffer": 0,
            "byteOffset": 896,
            "byteLength": 240,
            "target": 34963
        },
        {
            "buffer": 0,
            "byteOffset": 1136,
            "byteLength": 336,
            "target": 34962
        },
        {
            "buffer": 0,
            "byteOffset": 1472,
            "byteLength": 224,
            "target": 34962
        },
        {
            "buffer": 0,
            "byteOffset": 1696,
            "byteLength": 48372,
            "target": 34962
        },
        {
            "buffer": 0,
            "byteOffset": 50068,
            "byteLength": 48372,
            "target": 34962
        },
        {
            "buffer": 0,
            "byteOffset": 98440,
            "byteLength": 32248,
            "target": 34962
        },
        {
            "buffer": 0,
            "byteOffset": 130688,
            "byteLength": 82632,
            "target": 34963
        }
    ],
    "buffers": [
        {
            "byteLength": 213320,
            "uri": "탁상무드등_binary.bin"
        }
    ],
    "cameras": [
        {
            "perspective": {
                "znear": 0.0000053818080232304059,
                "yfov": 0.5700405836105347,
                "zfar": 0.2959994375705719,
                "aspectRatio": 1.4137096405029297
            },
            "type": "perspective",
            "name": "render_camera"
        },
        {
            "perspective": {
                "znear": 0.0000053818080232304059,
                "yfov": 0.5700405836105347,
                "zfar": 0.2959994375705719,
                "aspectRatio": 1.4137096405029297
            },
            "type": "perspective",
            "name": "render_camera3"
        },
        {
            "perspective": {
                "znear": 0.0000053818080232304059,
                "yfov": 0.5700405836105347,
                "zfar": 0.2959994375705719,
                "aspectRatio": 1.4137096405029297
            },
            "type": "perspective",
            "name": "render_camera4"
        },
        {
            "perspective": {
                "znear": 0.0000053818080232304059,
                "yfov": 0.5700405836105347,
                "zfar": 0.2959994375705719,
                "aspectRatio": 1.4137096405029297
            },
            "type": "perspective",
            "name": "render_camera5"
        }
    ],
    "images": [
        {
            "name": "light_oak_reconstituted_quarter_cut_00_baseColor",
            "uri": "탁상무드등_images\\light_oak_reconstituted_quarter_cut_00_baseColor.jpg",
            "mimeType": "image/jpeg"
        },
        {
            "name": "image_image",
            "uri": "탁상무드등_images\\image_image.png",
            "mimeType": "image/png"
        },
        {
            "name": "light_oak_reconstituted_quarter_cut_00_normal",
            "uri": "탁상무드등_images\\light_oak_reconstituted_quarter_cut_00_normal.png",
            "mimeType": "image/png"
        },
        {
            "name": "composited_baseColor_opacity",
            "uri": "탁상무드등_images\\composited_baseColor_opacity.png",
            "mimeType": "image/png"
        },
        {
            "name": "composited_roughness",
            "uri": "탁상무드등_images\\composited_roughness.png",
            "mimeType": "image/png"
        }
    ],
    "materials": [
        {
            "pbrMetallicRoughness": {
                "baseColorTexture": {
                    "index": 0
                },
                "metallicRoughnessTexture": {
                    "index": 1
                }
            },
            "normalTexture": {
                "index": 2
            },
            "name": "밝은 오크재",
            "doubleSided": true
        },
        {
            "pbrMetallicRoughness": {
                "baseColorFactor": [
                    0.9899994134902954,
                    1.0,
                    1.0,
                    0.25
                ],
                "metallicFactor": 0.0,
                "roughnessFactor": 0.0
            },
            "alphaMode": "BLEND",
            "name": "유리",
            "doubleSided": true
        },
        {
            "pbrMetallicRoughness": {
                "baseColorTexture": {
                    "index": 3
                },
                "metallicFactor": 0.0,
                "metallicRoughnessTexture": {
                    "index": 4
                }
            },
            "alphaMode": "MASK",
            "name": "매트",
            "doubleSided": true
        },
        {
            "pbrMetallicRoughness": {
                "baseColorFactor": [
                    1.0,
                    0.9301097989082336,
                    0.6239610314369202,
                    1.0
                ],
                "metallicFactor": 0.0
            },
            "emissiveFactor": [
                0.699999988079071,
                0.6510768532752991,
                0.4367727041244507
            ],
            "name": "광선",
            "doubleSided": true
        }
    ],
    "meshes": [
        {
            "name": "groupNumber_0",
            "primitives": [
                {
                    "attributes": {
                        "NORMAL": 1,
                        "POSITION": 0,
                        "TEXCOORD_0": 2
                    },
                    "indices": 3,
                    "material": 0
                }
            ]
        },
        {
            "name": "groupNumber_0",
            "primitives": [
                {
                    "attributes": {
                        "POSITION": 0,
                        "NORMAL": 1,
                        "TEXCOORD_0": 2
                    },
                    "indices": 3,
                    "material": 0
                }
            ]
        },
        {
            "name": "groupNumber_0",
            "primitives": [
                {
                    "attributes": {
                        "NORMAL": 1,
                        "POSITION": 0,
                        "TEXCOORD_0": 2
                    },
                    "indices": 3,
                    "material": 0
                }
            ]
        },
        {
            "name": "groupNumber_0 2",
            "primitives": [
                {
                    "attributes": {
                        "POSITION": 4,
                        "NORMAL": 1,
                        "TEXCOORD_0": 5
                    },
                    "indices": 3,
                    "material": 1
                }
            ]
        },
        {
            "name": "groupNumber_0 2",
            "primitives": [
                {
                    "attributes": {
                        "NORMAL": 1,
                        "POSITION": 4,
                        "TEXCOORD_0": 5
                    },
                    "indices": 3,
                    "material": 2
                }
            ]
        },
        {
            "name": "groupNumber_0 2",
            "primitives": [
                {
                    "attributes": {
                        "NORMAL": 1,
                        "POSITION": 4,
                        "TEXCOORD_0": 5
                    },
                    "indices": 3,
                    "material": 1
                }
            ]
        },
        {
            "name": "groupNumber_0 3",
            "primitives": [
                {
                    "attributes": {
                        "POSITION": 6,
                        "NORMAL": 7,
                        "TEXCOORD_0": 8
                    },
                    "indices": 9,
                    "material": 3
                }
            ]
        }
    ],
    "nodes": [
        {
            "translation": [
                -0.3200102150440216,
                0.13746561110019685,
                0.44155430793762209
            ],
            "rotation": [
                -0.026524940505623819,
                -0.299976110458374,
                -0.008344542235136032,
                0.9535413384437561
            ],
            "camera": 0,
            "name": "render_camera_n3d"
        },
        {
            "children": [
                2,
                3,
                4
            ],
            "name": "그룹"
        },
        {
            "translation": [
                0.0,
                0.0075000012293457989,
                0.0
            ],
            "scale": [
                1.0,
                0.49968698620796206,
                0.43306198716163638
            ],
            "mesh": 0,
            "name": "groupNumber_0"
        },
        {
            "translation": [
                0.0,
                0.015009401366114617,
                0.010832180269062519
            ],
            "scale": [
                1.0,
                1.0,
                0.2831558883190155
            ],
            "mesh": 1,
            "name": "groupNumber_0"
        },
        {
            "translation": [
                0.0,
                0.015009401366114617,
                -0.0106955012306571
            ],
            "scale": [
                1.0,
                1.0,
                0.2831558883190155
            ],
            "mesh": 2,
            "name": "groupNumber_0"
        },
        {
            "translation": [
                0.0,
                0.11718350648880005,
                -0.0036833840422332288
            ],
            "scale": [
                1.0,
                1.0,
                0.6246064901351929
            ],
            "mesh": 3,
            "name": "groupNumber_0 2"
        },
        {
            "translation": [
                0.0,
                0.11718350648880005,
                -0.0011230281088501216
            ],
            "scale": [
                0.9999998807907105,
                0.9999998807907105,
                0.0012492130044847727
            ],
            "mesh": 4,
            "name": "groupNumber_0 2"
        },
        {
            "translation": [
                0.0,
                0.11718350648880005,
                0.0022846071515232326
            ],
            "mesh": 5,
            "name": "groupNumber_0 2"
        },
        {
            "translation": [
                0.0,
                0.12250540405511856,
                0.007400543428957462
            ],
            "mesh": 6,
            "name": "groupNumber_0 3"
        },
        {
            "translation": [
                -0.39561453461647036,
                0.22552931308746339,
                0.526491105556488
            ],
            "rotation": [
                -0.06779574602842331,
                -0.31414616107940676,
                -0.02249726466834545,
                0.9466835856437683
            ],
            "scale": [
                0.9999999403953552,
                1.0,
                1.0
            ],
            "camera": 1,
            "name": "1 보기"
        },
        {
            "translation": [
                -0.399794340133667,
                0.0884689912199974,
                0.43158403038978579
            ],
            "rotation": [
                0.014822561293840409,
                -0.35738617181777956,
                0.005672773811966181,
                0.9338218569755554
            ],
            "scale": [
                1.0,
                1.0,
                1.0000001192092896
            ],
            "camera": 2,
            "name": "2 보기"
        },
        {
            "translation": [
                -0.3200102150440216,
                0.13746561110019685,
                0.44155430793762209
            ],
            "rotation": [
                -0.026524940505623819,
                -0.299976110458374,
                -0.008344542235136032,
                0.9535413384437561
            ],
            "camera": 3,
            "name": "3 보기"
        }
    ],
    "samplers": [
        {},
        {},
        {},
        {},
        {}
    ],
    "scenes": [
        {
            "nodes": [
                0,
                1,
                5,
                6,
                7,
                8,
                9,
                10,
                11
            ],
            "name": "scene"
        }
    ],
    "textures": [
        {
            "name": "light_oak_reconstituted_quarter_cut_00_material::baseColor::image",
            "sampler": 0,
            "source": 0
        },
        {
            "name": "image_image",
            "sampler": 1,
            "source": 1
        },
        {
            "name": "light_oak_reconstituted_quarter_cut_00_material::normal::image",
            "sampler": 2,
            "source": 2
        },
        {
            "name": "composited_baseColor_opacity",
            "sampler": 3,
            "source": 3
        },
        {
            "name": "composited_roughness",
            "sampler": 4,
            "source": 4
        }
    ],
    "scene": 0,
    "extensions": {
        "KHR_xmp": {
            "@context": {
                "dc": "http://purl.org/dc/elements/1.1/"
            },
            "packets": [
                {
                    "dc:date": "2023-01-25T17:09:45.682+09:00",
                    "dc:format": "model/gltf+json",
                    "dc:title": "탁상무드등.dn",
                    "xmp:CreatorTool": "AdobeDCXTest"
                }
            ]
        }
    },
    "extensionsUsed": [
        "KHR_xmp"
    ]
}